<svg xmlns="http://www.w3.org/2000/svg" xmlns:xlink="http://www.w3.org/1999/xlink" width="48" height="48" viewBox="0 0 48 48">
  <defs>
    <linearGradient id="linear-gradient" x1="0.525" y1="-0.072" x2="0.522" y2="1.224" gradientUnits="objectBoundingBox">
      <stop offset="0" stop-color="#0e8fff"/>
      <stop offset="1" stop-color="#3a00ff"/>
    </linearGradient>
    <linearGradient id="linear-gradient-2" x1="0.226" y1="0.134" x2="0.847" y2="1.174" xlink:href="#linear-gradient"/>
  </defs>
  <g id="Group_321" data-name="Group 321" transform="translate(-40 -21)">
    <rect id="Rectangle_295" data-name="Rectangle 295" width="48" height="48" transform="translate(40 21)" fill="none"/>
    <path id="Path_31" data-name="Path 31" d="M0,0H48V48H0Z" transform="translate(40 21)" fill="none"/>
    <path id="Path_32" data-name="Path 32" d="M21,1,3,9V21c0,11.1,7.68,21.48,18,24,10.32-2.52,18-12.9,18-24V9Z" transform="translate(43 22)" fill="url(#linear-gradient)"/>
    <path id="Intersection_2" data-name="Intersection 2" d="M-1921.826,2447.848A23.221,23.221,0,0,1-1922,2445a23,23,0,0,1,23-23,22.928,22.928,0,0,1,9,1.828V2434c0,11.1-7.68,21.48-18,24A23.389,23.389,0,0,1-1921.826,2447.848Z" transform="translate(1972 -2391)" fill="url(#linear-gradient-2)"/>
    <circle id="Ellipse_42" data-name="Ellipse 42" cx="13" cy="13" r="13" transform="translate(60 41)" fill="#1138f7"/>
    <path id="Path_35" data-name="Path 35" d="M8,8A2,2,0,1,0,6,6,2,2,0,0,0,8,8ZM8,9c-1.335,0-4,.67-4,2v1h8V11C12,9.67,9.335,9,8,9Z" transform="translate(65 46)" fill="#1138f7"/>
  </g>
</svg>
